HIERARCHY
ROOT Hips
{
	OFFSET -0.001795 -0.223333 0.028219
	CHANNELS 6 Xposition Yposition Zposition Zrotation Yrotation Xrotation 
	JOINT LeftUpLeg
	{
		OFFSET 0.069520 -0.091406 -0.006815
		CHANNELS 3 Zrotation Yrotation Xrotation
		JOINT LeftLeg
		{
			OFFSET 0.034277 -0.375199 -0.004496
			CHANNELS 3 Zrotation Yrotation Xrotation
			JOINT LeftFoot
			{
				OFFSET -0.013596 -0.397961 -0.043693
				CHANNELS 3 Zrotation Yrotation Xrotation
				JOINT LeftToe
				{
					OFFSET 0.026358 -0.055791 0.119288
					CHANNELS 3 Zrotation Yrotation Xrotation
					End Site
					{
						OFFSET 0.000000 0.000000 0.000000
					}
				}
			}
		}
	}
	JOINT RightUpLeg
	{
		OFFSET -0.067670 -0.090522 -0.004320
		CHANNELS 3 Zrotation Yrotation Xrotation
		JOINT RightLeg
		{
			OFFSET -0.038290 -0.382569 -0.008850
			CHANNELS 3 Zrotation Yrotation Xrotation
			JOINT RightFoot
			{
				OFFSET 0.015774 -0.398415 -0.042312
				CHANNELS 3 Zrotation Yrotation Xrotation
				JOINT RightToe
				{
					OFFSET -0.025372 -0.048144 0.123348
					CHANNELS 3 Zrotation Yrotation Xrotation
					End Site
					{
						OFFSET 0.000000 0.000000 0.000000
					}
				}
			}
		}
	}
	JOINT Spine
	{
		OFFSET -0.002533 0.108963 -0.026696
		CHANNELS 3 Zrotation Yrotation Xrotation
		JOINT Spine1
		{
			OFFSET 0.005487 0.135180 0.001092
			CHANNELS 3 Zrotation Yrotation Xrotation
			JOINT Spine2
			{
				OFFSET 0.001457 0.052922 0.025425
				CHANNELS 3 Zrotation Yrotation Xrotation
				JOINT Neck
				{
					OFFSET -0.002778 0.213870 -0.042857
					CHANNELS 3 Zrotation Yrotation Xrotation
					JOINT Head
					{
						OFFSET 0.005152 0.064970 0.051349
						CHANNELS 3 Zrotation Yrotation Xrotation
						End Site
						{
							OFFSET 0.000000 0.000000 0.000000
						}
					}
				}
				JOINT LeftShoulder
				{
					OFFSET 0.078845 0.121749 -0.034090
					CHANNELS 3 Zrotation Yrotation Xrotation
					JOINT LeftArm
					{
						OFFSET 0.090977 0.030469 -0.008868
						CHANNELS 3 Zrotation Yrotation Xrotation
						JOINT LeftForeArm
						{
							OFFSET 0.259612 -0.012772 -0.027456
							CHANNELS 3 Zrotation Yrotation Xrotation
							JOINT LeftHand
							{
								OFFSET 0.249234 0.008986 -0.001171
								CHANNELS 3 Zrotation Yrotation Xrotation
								End Site
								{
									OFFSET 0.000000 0.000000 0.000000
								}
							}
						}
					}
				}
				JOINT RightShoulder
				{
					OFFSET -0.081759 0.118833 -0.038615
					CHANNELS 3 Zrotation Yrotation Xrotation
					JOINT RightArm
					{
						OFFSET -0.096012 0.032551 -0.009143
						CHANNELS 3 Zrotation Yrotation Xrotation
						JOINT RightForeArm
						{
							OFFSET -0.253742 -0.013329 -0.021401
							CHANNELS 3 Zrotation Yrotation Xrotation
							JOINT RightHand
							{
								OFFSET -0.255298 0.007772 -0.005559
								CHANNELS 3 Zrotation Yrotation Xrotation
								End Site
								{
									OFFSET 0.000000 0.000000 0.000000
								}
							}
						}
					}
				}
			}
		}
	}
}
MOTION
Frames: 13
Frame Time: 0.050000
0.021185 0.906128 0.607427 -179.709517 16.772809 177.355887 5.467103 -5.225101 -13.162332 -22.072148 -17.169948 20.709063 113.896041 -72.662806 24.157711 0.000000 0.000000 0.000000 2.825363 -13.939355 -20.273330 -17.515430 -24.209563 33.074661 42.748683 8.675691 -3.742979 0.000000 0.000000 0.000000 -9.216675 -16.880210 35.165846 -6.335403 -4.068000 -30.126644 9.199169 25.537368 32.155535 12.921387 -0.414464 -37.334477 0.000000 0.000000 0.000000 1.435575 -30.038416 -89.279156 -8.961857 56.922463 4.074432 -45.510276 -15.087478 3.841007 0.000000 0.000000 0.000000 21.048735 -21.085807 75.666068 -21.500841 71.273641 -28.448564 -29.178884 21.339561 -8.313626 0.000000 0.000000 0.000000 
0.025497 0.905333 0.608431 -179.982129 15.736304 176.889379 5.358748 -5.245009 -13.073920 -22.738819 -17.717650 21.191380 121.137579 -75.812609 18.200760 0.000000 0.000000 0.000000 2.380802 -14.223973 -19.911215 -18.368860 -24.601474 33.661883 45.590310 8.814595 -3.266426 0.000000 0.000000 0.000000 -10.072409 -17.434872 35.757349 -5.864867 -3.784429 -30.159224 9.498523 25.855105 32.184590 12.960247 -1.406747 -36.933645 0.000000 0.000000 0.000000 2.466390 -29.427059 -93.087716 -4.455938 58.064645 6.991031 -46.602944 -12.237896 3.082915 0.000000 0.000000 0.000000 20.013859 -21.252846 78.562244 -29.128054 70.673602 -33.561152 -30.083129 20.283574 -8.326337 0.000000 0.000000 0.000000 
0.029964 0.905093 0.609121 179.733796 14.811660 176.507098 5.362570 -5.278703 -12.898710 -23.337442 -18.168982 21.411051 129.478110 -78.127963 10.806913 0.000000 0.000000 0.000000 2.107916 -14.378824 -19.593242 -19.446759 -25.261121 34.620718 48.667336 9.248238 -2.556442 0.000000 0.000000 0.000000 -10.287261 -17.777375 36.025266 -5.795509 -3.795289 -30.058520 9.816956 25.920847 32.265298 12.422776 -2.397719 -36.689544 0.000000 0.000000 0.000000 3.316027 -29.188379 -96.443950 0.385872 59.519209 10.389217 -46.810068 -10.504448 2.455425 0.000000 0.000000 0.000000 18.715930 -21.322810 81.515725 -36.982010 70.208079 -38.649488 -31.494285 18.672136 -8.186632 0.000000 0.000000 0.000000 
0.034477 0.905009 0.609623 179.369177 14.332086 176.156907 5.069714 -5.113447 -12.527000 -23.639374 -18.452223 21.502199 142.369914 -80.031878 -0.834249 0.000000 0.000000 0.000000 1.733375 -14.421161 -19.094700 -19.705153 -25.515822 34.805162 50.422514 9.231246 -2.408081 0.000000 0.000000 0.000000 -10.205465 -17.946714 36.099930 -6.064776 -4.096711 -30.070402 10.129527 26.171999 32.237986 12.082108 -3.562720 -36.066799 0.000000 0.000000 0.000000 4.065625 -28.547970 -99.343318 4.749145 60.335956 13.344133 -46.826049 -8.373475 1.563177 0.000000 0.000000 0.000000 17.704684 -21.470252 83.687636 -43.284983 69.588692 -42.531335 -32.568467 17.603286 -8.119484 0.000000 0.000000 0.000000 
0.039183 0.905969 0.610154 179.195788 13.427721 176.000223 5.006707 -5.107067 -12.257556 -23.626243 -18.590323 21.498289 157.232769 -81.062180 -15.364770 0.000000 0.000000 0.000000 1.566327 -14.215724 -18.492491 -19.454915 -25.529109 34.324208 52.438207 8.387502 -2.390831 0.000000 0.000000 0.000000 -9.979637 -18.011406 36.020881 -5.919800 -4.050315 -30.130937 10.225001 25.844314 32.412743 11.543927 -4.333030 -36.118387 0.000000 0.000000 0.000000 4.959948 -27.792033 -103.692799 12.962412 61.411443 19.260349 -46.755410 -6.601871 0.803710 0.000000 0.000000 0.000000 16.834765 -21.884221 86.860942 -51.090291 67.792688 -47.124061 -33.826937 15.956902 -7.923107 0.000000 0.000000 0.000000 
0.044262 0.906243 0.610658 179.053584 13.052569 175.936941 4.988948 -5.140001 -12.265682 -23.887810 -18.796078 21.857687 169.264800 -81.872995 -26.911860 0.000000 0.000000 0.000000 1.640145 -13.947478 -18.229574 -19.282742 -25.641857 34.125489 53.568624 8.126219 -2.501817 0.000000 0.000000 0.000000 -9.717842 -17.910055 35.795334 -5.618775 -3.787288 -30.159191 9.848601 25.482390 32.323023 11.381396 -5.423321 -35.458837 0.000000 0.000000 0.000000 5.410051 -27.273140 -105.551170 17.932395 61.832097 22.715771 -47.229944 -5.673002 0.311432 0.000000 0.000000 0.000000 16.711408 -22.000139 88.054766 -53.622932 66.937319 -48.643253 -34.575038 15.599984 -8.065638 0.000000 0.000000 0.000000 
0.049534 0.906013 0.611099 179.113995 12.461377 175.789327 5.291889 -5.330166 -12.151295 -24.489145 -19.137550 22.153424 -160.723949 -82.153814 -55.540125 0.000000 0.000000 0.000000 1.707824 -13.324671 -17.509228 -19.169481 -26.097520 34.090395 54.998381 7.739840 -2.848852 0.000000 0.000000 0.000000 -9.564385 -17.936465 35.712197 -5.569273 -3.782283 -30.157689 10.013619 25.383408 32.264477 10.940822 -6.255069 -35.306173 0.000000 0.000000 0.000000 6.955842 -26.116209 -109.654623 26.979676 61.861145 28.753796 -48.433062 -3.498793 -0.959772 0.000000 0.000000 0.000000 15.763200 -22.497625 90.263926 -58.134981 65.690339 -50.712932 -35.846164 14.530408 -7.914157 0.000000 0.000000 0.000000 
0.054752 0.904652 0.611446 179.195822 11.995149 175.548168 5.838023 -5.694089 -12.277782 -26.000987 -19.885160 22.941328 -140.243702 -82.358079 -75.159339 0.000000 0.000000 0.000000 2.050013 -12.537135 -16.993395 -19.285735 -26.550939 34.206919 57.092882 7.613478 -3.091224 0.000000 0.000000 0.000000 -9.743797 -18.237249 35.926773 -5.200836 -3.471634 -30.123229 9.855392 25.733375 31.927779 10.597253 -7.514420 -34.691791 0.000000 0.000000 0.000000 7.648920 -25.200807 -112.486669 34.013325 61.032421 33.359592 -49.567950 -1.995003 -1.734065 0.000000 0.000000 0.000000 15.413771 -22.613379 91.582405 -60.567201 64.660865 -51.803121 -36.215802 14.192804 -7.975871 0.000000 0.000000 0.000000 
0.059258 0.902769 0.612005 179.165710 11.777595 175.420984 6.239657 -6.012572 -12.900988 -27.712063 -20.713043 24.155934 -118.899440 -81.445523 -95.304035 0.000000 0.000000 0.000000 2.222400 -12.291228 -16.887715 -20.441486 -27.202318 35.337551 60.411030 8.438765 -2.304914 0.000000 0.000000 0.000000 -10.158454 -18.571648 36.299485 -5.014408 -3.360431 -30.272220 10.152406 26.245597 31.976970 9.924263 -8.260642 -34.575300 0.000000 0.000000 0.000000 8.565695 -24.223058 -115.109675 39.237611 60.293366 36.626404 -50.871896 -1.118447 -2.399818 0.000000 0.000000 0.000000 14.613341 -22.916544 92.671171 -62.861324 64.246040 -52.722989 -37.092511 13.310026 -7.729734 0.000000 0.000000 0.000000 
0.062733 0.900260 0.612899 179.212442 11.669016 175.268143 7.023147 -6.526048 -13.392068 -30.665429 -21.988878 25.702828 -97.814384 -81.330655 -115.601624 0.000000 0.000000 0.000000 2.550740 -12.124472 -17.067775 -21.703557 -27.608492 36.368740 62.601033 9.126857 -1.595571 0.000000 0.000000 0.000000 -10.713202 -19.370362 37.175390 -4.953340 -3.494827 -30.645888 10.646271 27.816579 31.881646 9.570398 -8.963715 -34.436644 0.000000 0.000000 0.000000 9.492711 -23.781978 -117.088161 42.725519 59.664829 38.613275 -52.406703 0.057100 -3.217402 0.000000 0.000000 0.000000 14.161502 -23.280771 93.366110 -63.690169 63.711183 -52.572207 -37.951282 13.493382 -7.885883 0.000000 0.000000 0.000000 
0.065501 0.898103 0.614226 179.198929 11.585730 175.429023 7.476697 -6.945663 -14.369158 -32.740668 -22.902963 26.797291 -84.187284 -78.412862 -128.300239 0.000000 0.000000 0.000000 2.749742 -12.352796 -17.568802 -23.031041 -27.982059 37.556091 65.798362 9.868615 -0.059382 0.000000 0.000000 0.000000 -11.660498 -19.946990 37.966368 -4.580769 -3.252860 -30.701852 11.048784 28.626962 31.959333 9.575851 -9.055680 -34.546239 0.000000 0.000000 0.000000 9.605808 -23.799887 -117.238816 42.482138 59.690230 38.481133 -54.243163 -0.667819 -2.733644 0.000000 0.000000 0.000000 13.271219 -23.090460 93.925849 -63.832730 63.166929 -51.477016 -38.501056 13.148089 -7.755362 0.000000 0.000000 0.000000 
0.067910 0.895561 0.615610 179.285263 11.800914 175.405743 8.181817 -7.433692 -15.060747 -35.416055 -23.895947 28.132214 -69.819474 -77.236669 -142.742853 0.000000 0.000000 0.000000 2.937789 -12.570963 -18.076517 -24.400929 -28.415392 38.902282 66.732669 10.478481 1.417390 0.000000 0.000000 0.000000 -12.225617 -20.563830 38.769736 -4.754919 -3.537320 -30.812223 11.877598 30.174510 32.059003 9.561290 -9.431049 -34.398534 0.000000 0.000000 0.000000 10.050718 -23.852385 -117.866020 43.026396 59.626614 38.734470 -56.222100 -0.413012 -2.897849 0.000000 0.000000 0.000000 13.134827 -23.410607 93.856754 -62.809894 62.968560 -50.220279 -39.174719 13.989767 -8.063419 0.000000 0.000000 0.000000 
0.070557 0.892627 0.616705 179.364872 11.530516 175.528761 8.623255 -7.844535 -15.737404 -36.869544 -24.488889 28.830618 -68.421571 -73.512207 -143.212983 0.000000 0.000000 0.000000 3.253879 -12.918707 -18.811831 -26.388943 -28.974857 40.671919 69.705906 10.992427 3.472434 0.000000 0.000000 0.000000 -13.484667 -21.380022 39.877809 -4.374041 -3.319668 -30.740034 12.209120 31.124531 32.199370 9.865297 -9.311703 -34.558386 0.000000 0.000000 0.000000 9.835778 -24.395917 -116.870045 40.435854 59.427394 36.804462 -57.712263 -1.182162 -2.051901 0.000000 0.000000 0.000000 12.888845 -22.913274 94.264325 -62.631612 62.129604 -49.369772 -39.823756 13.814322 -8.176852 0.000000 0.000000 0.000000 
